<svg width="190" height="190" viewBox="0 0 190 190" fill="none" xmlns="http://www.w3.org/2000/svg">
<circle cx="95" cy="95" r="85" fill="#FF528B" stroke="#22283A" stroke-width="20"/>
<path d="M124 145.229C124.552 146.186 124.226 147.412 123.252 147.933C114.801 152.443 105.383 154.869 95.7854 154.995C85.5203 155.129 75.3924 152.628 66.3705 147.729C57.3486 142.831 49.7344 135.699 44.2563 127.017C38.7783 118.335 35.6195 108.392 35.0822 98.1402C34.5449 87.8883 36.6471 77.67 41.1876 68.4627C45.7281 59.2555 52.5551 51.3672 61.0156 45.5525C69.476 39.7377 79.2869 36.1911 89.5098 35.2517C99.0682 34.3734 108.688 35.8019 117.564 39.4043C118.587 39.8197 119.04 41.0053 118.591 42.0143L115.337 49.3227C114.888 50.3318 113.707 50.7814 112.68 50.3746C105.682 47.6023 98.1214 46.511 90.6079 47.2014C82.4295 47.9529 74.5808 50.7902 67.8125 55.442C61.0441 60.0937 55.5825 66.4044 51.9501 73.7702C48.3177 81.136 46.636 89.3106 47.0658 97.5122C47.4956 105.714 50.0226 113.668 54.4051 120.614C58.7875 127.559 64.8789 133.264 72.0964 137.183C79.3139 141.102 87.4162 143.103 95.6283 142.996C103.173 142.897 110.578 141.021 117.248 137.533C118.226 137.021 119.448 137.345 120 138.301L124 145.229Z" fill="#22283A"/>
<circle cx="95.5" cy="95.5" r="27.5" stroke="#414C6B" stroke-width="12"/>
</svg>
